<?xml version="1.0" encoding="UTF-8" standalone="no"?>
<!-- Created with Inkscape (http://www.inkscape.org/) -->

<svg
   xmlns:dc="http://purl.org/dc/elements/1.1/"
   xmlns:cc="http://creativecommons.org/ns#"
   xmlns:rdf="http://www.w3.org/1999/02/22-rdf-syntax-ns#"
   xmlns:svg="http://www.w3.org/2000/svg"
   xmlns="http://www.w3.org/2000/svg"
   xmlns:xlink="http://www.w3.org/1999/xlink"
   xmlns:sodipodi="http://sodipodi.sourceforge.net/DTD/sodipodi-0.dtd"
   xmlns:inkscape="http://www.inkscape.org/namespaces/inkscape"
   width="420.50571mm"
   height="54.681007mm"
   viewBox="0 0 1489.9809 193.7516"
   id="svg2"
   version="1.1"
   inkscape:version="0.91 r13725"
   sodipodi:docname="logo.svg">
  <defs
     id="defs4">
    <linearGradient
       inkscape:collect="always"
       id="linearGradient5880">
      <stop
         style="stop-color:#c03d4f;stop-opacity:1;"
         offset="0"
         id="stop5882" />
      <stop
         style="stop-color:#c03d4f;stop-opacity:0;"
         offset="1"
         id="stop5884" />
    </linearGradient>
    <linearGradient
       id="linearGradient4152">
      <stop
         style="stop-color:#7a7e4c;stop-opacity:1;"
         offset="0"
         id="stop4154" />
    </linearGradient>
    <radialGradient
       inkscape:collect="always"
       xlink:href="#linearGradient5880"
       id="radialGradient5888"
       cx="-3309.5308"
       cy="155.01997"
       fx="-3309.5308"
       fy="155.01997"
       r="899.30255"
       gradientTransform="matrix(-3.8884423,-8.8534715,81.153333,-1.4066707,10918.384,-32310.606)"
       gradientUnits="userSpaceOnUse" />
    <radialGradient
       inkscape:collect="always"
       xlink:href="#linearGradient5880"
       id="radialGradient5923"
       gradientUnits="userSpaceOnUse"
       gradientTransform="matrix(-7.1909392,-3.1713659,150.07775,-0.50387781,23003.356,-11666.798)"
       cx="-3309.5308"
       cy="155.01997"
       fx="-3309.5308"
       fy="155.01997"
       r="899.30255" />
    <radialGradient
       inkscape:collect="always"
       xlink:href="#linearGradient5880"
       id="radialGradient5925"
       gradientUnits="userSpaceOnUse"
       gradientTransform="matrix(-7.1909392,-3.1713659,150.07775,-0.50387781,23003.356,-11666.798)"
       cx="-3309.5308"
       cy="155.01997"
       fx="-3309.5308"
       fy="155.01997"
       r="899.30255" />
    <radialGradient
       inkscape:collect="always"
       xlink:href="#linearGradient5880"
       id="radialGradient5927"
       gradientUnits="userSpaceOnUse"
       gradientTransform="matrix(-7.1909392,-3.1713659,150.07775,-0.50387781,23003.356,-11666.798)"
       cx="-3309.5308"
       cy="155.01997"
       fx="-3309.5308"
       fy="155.01997"
       r="899.30255" />
    <radialGradient
       inkscape:collect="always"
       xlink:href="#linearGradient5880"
       id="radialGradient5929"
       gradientUnits="userSpaceOnUse"
       gradientTransform="matrix(-7.1909392,-3.1713659,150.07775,-0.50387781,23003.356,-11666.798)"
       cx="-3309.5308"
       cy="155.01997"
       fx="-3309.5308"
       fy="155.01997"
       r="899.30255" />
    <radialGradient
       inkscape:collect="always"
       xlink:href="#linearGradient5880"
       id="radialGradient5931"
       gradientUnits="userSpaceOnUse"
       gradientTransform="matrix(-7.1909392,-3.1713659,150.07775,-0.50387781,23003.356,-11666.798)"
       cx="-3309.5308"
       cy="155.01997"
       fx="-3309.5308"
       fy="155.01997"
       r="899.30255" />
    <radialGradient
       inkscape:collect="always"
       xlink:href="#linearGradient5880"
       id="radialGradient5933"
       gradientUnits="userSpaceOnUse"
       gradientTransform="matrix(-7.1909392,-3.1713659,150.07775,-0.50387781,23003.356,-11666.798)"
       cx="-3309.5308"
       cy="155.01997"
       fx="-3309.5308"
       fy="155.01997"
       r="899.30255" />
    <radialGradient
       inkscape:collect="always"
       xlink:href="#linearGradient5880"
       id="radialGradient5935"
       gradientUnits="userSpaceOnUse"
       gradientTransform="matrix(-7.1909392,-3.1713659,150.07775,-0.50387781,23003.356,-11666.798)"
       cx="-3309.5308"
       cy="155.01997"
       fx="-3309.5308"
       fy="155.01997"
       r="899.30255" />
    <radialGradient
       inkscape:collect="always"
       xlink:href="#linearGradient5880"
       id="radialGradient5937"
       gradientUnits="userSpaceOnUse"
       gradientTransform="matrix(-7.1909392,-3.1713659,150.07775,-0.50387781,23003.356,-11666.798)"
       cx="-3309.5308"
       cy="155.01997"
       fx="-3309.5308"
       fy="155.01997"
       r="899.30255" />
    <radialGradient
       inkscape:collect="always"
       xlink:href="#linearGradient5880"
       id="radialGradient5939"
       gradientUnits="userSpaceOnUse"
       gradientTransform="matrix(-7.1909392,-3.1713659,150.07775,-0.50387781,23003.356,-11666.798)"
       cx="-3309.5308"
       cy="155.01997"
       fx="-3309.5308"
       fy="155.01997"
       r="899.30255" />
    <radialGradient
       inkscape:collect="always"
       xlink:href="#linearGradient5880"
       id="radialGradient5941"
       gradientUnits="userSpaceOnUse"
       gradientTransform="matrix(-7.1909392,-3.1713659,150.07775,-0.50387781,23003.356,-11666.798)"
       cx="-3309.5308"
       cy="155.01997"
       fx="-3309.5308"
       fy="155.01997"
       r="899.30255" />
    <radialGradient
       inkscape:collect="always"
       xlink:href="#linearGradient5880"
       id="radialGradient5943"
       gradientUnits="userSpaceOnUse"
       gradientTransform="matrix(-7.1909392,-3.1713659,150.07775,-0.50387781,23003.356,-11666.798)"
       cx="-3309.5308"
       cy="155.01997"
       fx="-3309.5308"
       fy="155.01997"
       r="899.30255" />
    <radialGradient
       inkscape:collect="always"
       xlink:href="#linearGradient5880"
       id="radialGradient4932"
       gradientUnits="userSpaceOnUse"
       gradientTransform="matrix(-3.8884423,-8.8534715,81.153333,-1.4066707,10918.384,-32310.606)"
       cx="-3309.5308"
       cy="155.01997"
       fx="-3309.5308"
       fy="155.01997"
       r="899.30255" />
  </defs>
  <sodipodi:namedview
     id="base"
     pagecolor="#ffffff"
     bordercolor="#666666"
     borderopacity="1.0"
     inkscape:pageopacity="0.0"
     inkscape:pageshadow="2"
     inkscape:zoom="0.35"
     inkscape:cx="511.44955"
     inkscape:cy="-192.45515"
     inkscape:document-units="px"
     inkscape:current-layer="text5818"
     showgrid="false"
     inkscape:snap-others="false"
     inkscape:window-width="1366"
     inkscape:window-height="714"
     inkscape:window-x="0"
     inkscape:window-y="25"
     inkscape:window-maximized="1"
     fit-margin-top="0"
     fit-margin-left="0"
     fit-margin-right="0"
     fit-margin-bottom="0" />
  <metadata
     id="metadata7">
    <rdf:RDF>
      <cc:Work
         rdf:about="">
        <dc:format>image/svg+xml</dc:format>
        <dc:type
           rdf:resource="http://purl.org/dc/dcmitype/StillImage" />
        <dc:title></dc:title>
      </cc:Work>
    </rdf:RDF>
  </metadata>
  <g
     inkscape:label="Calque 1"
     inkscape:groupmode="layer"
     id="layer1"
     transform="translate(512.98566,-360.90064)">
    <g
       transform="scale(0.42090375,2.3758401)"
       style="font-style:normal;font-variant:normal;font-weight:normal;font-stretch:condensed;font-size:314.45373535px;line-height:50%;font-family:'Universalis ADF Cd Std';-inkscape-font-specification:'Universalis ADF Cd Std, Condensed';text-align:start;letter-spacing:0px;word-spacing:0px;writing-mode:lr-tb;text-anchor:start;fill:url(#radialGradient5888);fill-opacity:1;stroke:none;stroke-width:1px;stroke-linecap:butt;stroke-linejoin:miter;stroke-opacity:1"
       id="text5818">
      <g
         id="g4919"
         style="fill:url(#radialGradient4932)"
         transform="translate(4242.5716,247.73192)">
        <path
           inkscape:connector-curvature="0"
           id="path5891"
           style="font-style:normal;font-variant:normal;font-weight:normal;font-stretch:condensed;font-size:314.45373535px;line-height:50%;font-family:'Universalis ADF Cd Std';-inkscape-font-specification:'Universalis ADF Cd Std, Condensed';text-align:start;writing-mode:lr-tb;text-anchor:start;fill:url(#radialGradient5943);fill-opacity:1"
           d="m -5260.1367,-86.253157 c -23.8424,-5.857238 -50.011,-9.461692 -90.7175,-9.574332 -66.2935,0 -106.4188,8.673218 -106.4188,22.189921 0,12.277672 26.1687,18.134908 87.2285,21.28881 44.1958,2.478059 75.0164,3.491812 75.0164,16.220044 0,9.799607 -26.75,14.192537 -69.7827,14.192537 -21.5164,-0.337916 -45.9404,-2.590704 -68.6196,-7.997384 l -27.9131,6.983628 c 27.9131,5.406683 68.0382,8.560582 96.5327,8.560582 75.598,0 115.723,-7.659468 115.723,-22.640477 0,-12.840871 -29.6578,-19.824499 -89.5545,-22.978398 -40.125,-2.252783 -74.435,-3.717092 -73.8534,-14.192538 0,-9.68697 25.5872,-14.192538 66.2936,-14.192538 26.1684,0 40.7067,3.266537 58.7337,8.44794 l 27.3317,-6.307795 z" />
        <path
           inkscape:connector-curvature="0"
           id="path5893"
           style="font-style:normal;font-variant:normal;font-weight:normal;font-stretch:condensed;font-size:314.45373535px;line-height:50%;font-family:'Universalis ADF Cd Std';-inkscape-font-specification:'Universalis ADF Cd Std, Condensed';text-align:start;writing-mode:lr-tb;text-anchor:start;fill:url(#radialGradient5941);fill-opacity:1"
           d="m -5190.6993,-94.588458 0,49.673887 c 0,20.612971 41.2881,30.52522 116.8861,30.52522 76.1797,0 115.7231,-10.13753 115.7231,-30.52522 l 0,-49.673887 -43.6142,0 0,48.322214 c 0,17.571714 -22.098,25.005901 -72.1089,25.005901 -51.7555,0 -72.1089,-7.546826 -72.1089,-25.005901 l 0,-48.322214 -44.7772,0 z" />
        <path
           inkscape:connector-curvature="0"
           id="path5895"
           style="font-style:normal;font-variant:normal;font-weight:normal;font-stretch:condensed;font-size:314.45373535px;line-height:50%;font-family:'Universalis ADF Cd Std';-inkscape-font-specification:'Universalis ADF Cd Std, Condensed';text-align:start;writing-mode:lr-tb;text-anchor:start;fill:url(#radialGradient5939);fill-opacity:1"
           d="m -4910.7868,-15.741024 46.5218,0 57.5708,-49.561244 79.0871,49.561244 80.25,-49.561244 57.5707,49.561244 46.5219,0 -97.1142,-80.086465 -86.6471,55.531123 -86.6468,-55.531123 -97.1142,80.086465 z" />
        <path
           inkscape:connector-curvature="0"
           id="path5897"
           style="font-style:normal;font-variant:normal;font-weight:normal;font-stretch:condensed;font-size:314.45373535px;line-height:50%;font-family:'Universalis ADF Cd Std';-inkscape-font-specification:'Universalis ADF Cd Std, Condensed';text-align:start;writing-mode:lr-tb;text-anchor:start;fill:url(#radialGradient5937);fill-opacity:1"
           d="m -4522.3477,-15.741024 46.5218,0 57.5707,-49.561244 79.0871,49.561244 80.2501,-49.561244 57.5707,49.561244 46.5218,0 -97.1143,-80.086465 -86.6469,55.531123 -86.6469,-55.531123 -97.1141,80.086465 z" />
        <path
           inkscape:connector-curvature="0"
           id="path5899"
           style="font-style:normal;font-variant:normal;font-weight:normal;font-stretch:condensed;font-size:314.45373535px;line-height:50%;font-family:'Universalis ADF Cd Std';-inkscape-font-specification:'Universalis ADF Cd Std, Condensed';text-align:start;writing-mode:lr-tb;text-anchor:start;fill:url(#radialGradient5935);fill-opacity:1"
           d="m -4000.7401,-73.524928 44.7771,29.28619 -88.9729,0 44.1958,-29.28619 z m 0,-22.302561 -138.4024,80.086465 44.7772,0 34.3098,-20.38769 119.7937,0 33.7284,20.38769 44.7771,0 -138.9838,-80.086465 z" />
        <path
           inkscape:connector-curvature="0"
           id="path5901"
           style="font-style:normal;font-variant:normal;font-weight:normal;font-stretch:condensed;font-size:314.45373535px;line-height:50%;font-family:'Universalis ADF Cd Std';-inkscape-font-specification:'Universalis ADF Cd Std, Condensed';text-align:start;writing-mode:lr-tb;text-anchor:start;fill:url(#radialGradient5933);fill-opacity:1"
           d="m -3686.4089,-15.741024 46.5218,0 57.5708,-49.561244 79.0871,49.561244 80.2501,-49.561244 57.5708,49.561244 46.5218,0 -97.1142,-80.086465 -86.6469,55.531123 -86.6471,-55.531123 -97.1142,80.086465 z" />
        <path
           inkscape:connector-curvature="0"
           id="path5903"
           style="font-style:normal;font-variant:normal;font-weight:normal;font-stretch:condensed;font-size:314.45373535px;line-height:50%;font-family:'Universalis ADF Cd Std';-inkscape-font-specification:'Universalis ADF Cd Std, Condensed';text-align:start;writing-mode:lr-tb;text-anchor:start;fill:url(#radialGradient5931);fill-opacity:1"
           d="m -3271.2198,-94.588458 0,49.673887 c 0,20.612971 41.2882,30.52522 116.8861,30.52522 76.1795,0 115.7229,-10.13753 115.7229,-30.52522 l 0,-49.673887 -43.6141,0 0,48.322214 c 0,17.571714 -22.0978,25.005901 -72.1088,25.005901 -51.7554,0 -72.1087,-7.546826 -72.1087,-25.005901 l 0,-48.322214 -44.7774,0 z" />
        <path
           inkscape:connector-curvature="0"
           id="path5905"
           style="font-style:normal;font-variant:normal;font-weight:normal;font-stretch:condensed;font-size:314.45373535px;line-height:50%;font-family:'Universalis ADF Cd Std';-inkscape-font-specification:'Universalis ADF Cd Std, Condensed';text-align:start;writing-mode:lr-tb;text-anchor:start;fill:url(#radialGradient5929);fill-opacity:1"
           d="m -2777.3072,-86.253157 c -23.8424,-5.857238 -50.0109,-9.461692 -90.7174,-9.574332 -66.2936,0 -106.4188,8.673218 -106.4188,22.189921 0,12.277672 26.1686,18.134908 87.2286,21.28881 44.1957,2.478059 75.0163,3.491812 75.0163,16.220044 0,9.799607 -26.7501,14.192537 -69.7826,14.192537 -21.5164,-0.337916 -45.9404,-2.590704 -68.6198,-7.997384 l -27.9131,6.983628 c 27.9131,5.406683 68.0382,8.560582 96.5329,8.560582 75.5978,0 115.7231,-7.659468 115.7231,-22.640477 0,-12.840871 -29.6578,-19.824499 -89.5546,-22.978398 -40.1251,-2.252783 -74.435,-3.717092 -73.8534,-14.192538 0,-9.68697 25.587,-14.192538 66.2936,-14.192538 26.1685,0 40.7065,3.266537 58.7338,8.44794 l 27.3314,-6.307795 z" />
        <path
           inkscape:connector-curvature="0"
           id="path5907"
           style="font-style:normal;font-variant:normal;font-weight:normal;font-stretch:condensed;font-size:314.45373535px;line-height:50%;font-family:'Universalis ADF Cd Std';-inkscape-font-specification:'Universalis ADF Cd Std, Condensed';text-align:start;writing-mode:lr-tb;text-anchor:start;fill:url(#radialGradient5927);fill-opacity:1"
           d="m -2704.9619,-94.588458 0,78.847434 43.0327,0 0,-78.847434 -43.0327,0 z" />
        <path
           inkscape:connector-curvature="0"
           id="path5909"
           style="font-style:normal;font-variant:normal;font-weight:normal;font-stretch:condensed;font-size:314.45373535px;line-height:50%;font-family:'Universalis ADF Cd Std';-inkscape-font-specification:'Universalis ADF Cd Std, Condensed';text-align:start;writing-mode:lr-tb;text-anchor:start;fill:url(#radialGradient5925);fill-opacity:1"
           d="m -2350.8782,-88.73122 c -29.0762,-4.618206 -60.4784,-7.096269 -97.1144,-7.096269 -90.7176,0 -147.7069,15.769488 -147.7069,41.113304 0,25.456457 56.9893,40.437473 147.7069,40.437473 36.636,0 67.4566,-2.027507 96.5327,-6.75835 l -25.0054,-5.857242 c -21.5164,3.717096 -44.7772,5.406683 -69.2013,5.406683 -68.038,0 -103.511,-11.827114 -103.511,-33.228564 0,-21.964641 38.3806,-33.679117 103.511,-33.679117 26.1685,0 49.4296,2.027506 72.109,5.857238 l 22.6794,-6.195156 z" />
        <path
           inkscape:connector-curvature="0"
           id="path5911"
           style="font-style:normal;font-variant:normal;font-weight:normal;font-stretch:condensed;font-size:314.45373535px;line-height:50%;font-family:'Universalis ADF Cd Std';-inkscape-font-specification:'Universalis ADF Cd Std, Condensed';text-align:start;writing-mode:lr-tb;text-anchor:start;fill:url(#radialGradient5923);fill-opacity:1"
           d="m -2199.3552,-73.524928 45.3587,29.28619 -89.5545,0 44.1958,-29.28619 z m 277.9678,57.783904 -14.5381,-7.997378 -138.984,0 -54.6631,-34.242317 148.2882,0 -15.1196,-8.222662 -150.0327,0 -32.5652,-20.162415 149.4513,0 -15.7012,-8.222662 -149.4514,0 -4.652,-1.239031 -140.1472,80.086465 45.9405,0 34.3097,-20.38769 118.6307,0 33.7282,20.38769 185.5059,0 z" />
      </g>
      <rect
         style="opacity:0;fill:#c0643d;fill-opacity:1;fill-rule:nonzero;stroke:none;stroke-opacity:1"
         id="rect5945"
         width="3808.1323"
         height="134.68919"
         x="-5668.0757"
         y="-113.85233"
         ry="0.01683615" />
      <rect
         style="opacity:0.01000001;fill:#bf3e4f;fill-opacity:0.34117647;fill-rule:nonzero;stroke:none;stroke-width:3;stroke-miterlimit:4;stroke-dasharray:none;stroke-opacity:1"
         id="rect4934"
         width="672.02338"
         height="99.814316"
         x="380.13443"
         y="340.72372"
         ry="0.0070863771" />
    </g>
  </g>
</svg>
