<svg xmlns="http://www.w3.org/2000/svg" xmlns:xlink="http://www.w3.org/1999/xlink" version="1.2" width="210.00mm" height="297.00mm" viewBox="0 0 119.5016 169.0094">
<!-- Page: 1/1 -->
<text transform="translate(5.6906, 2.8453)" font-family="Century Schoolbook L" font-size="2.2001" text-anchor="start" fill="currentColor">
<tspan>
 </tspan>
</text>
<line transform="translate(14.2264, 29.7690)" stroke-linejoin="round" stroke-linecap="round" stroke-width="0.1000" stroke="currentColor" x1="0.0500" y1="-0.0000" x2="45.0146" y2="-0.0000"/>
<line transform="translate(14.2264, 28.7690)" stroke-linejoin="round" stroke-linecap="round" stroke-width="0.1000" stroke="currentColor" x1="0.0500" y1="-0.0000" x2="45.0146" y2="-0.0000"/>
<line transform="translate(14.2264, 27.7690)" stroke-linejoin="round" stroke-linecap="round" stroke-width="0.1000" stroke="currentColor" x1="0.0500" y1="-0.0000" x2="45.0146" y2="-0.0000"/>
<line transform="translate(14.2264, 26.7690)" stroke-linejoin="round" stroke-linecap="round" stroke-width="0.1000" stroke="currentColor" x1="0.0500" y1="-0.0000" x2="45.0146" y2="-0.0000"/>
<line transform="translate(14.2264, 25.7690)" stroke-linejoin="round" stroke-linecap="round" stroke-width="0.1000" stroke="currentColor" x1="0.0500" y1="-0.0000" x2="45.0146" y2="-0.0000"/>
<rect transform="translate(59.1010, 6.9294)" x="0.0000" y="13.8896" width="0.1900" height="4.9500" ry="0.0000" fill="currentColor"/>
<rect transform="translate(59.1010, 27.7690)" x="0.0000" y="-2.0500" width="0.1900" height="4.0500" ry="0.0000" fill="currentColor"/>
<rect transform="translate(59.1010, 18.7690)" x="0.0000" y="-2.0000" width="0.1900" height="4.0500" ry="0.0000" fill="currentColor"/>
<rect transform="translate(5.6906, 24.7690)" x="40.9624" y="-0.1000" width="1.9743" height="0.2000" ry="0.1000" fill="currentColor"/>
<rect transform="translate(59.1010, 8.8756)" x="0.0000" y="-2.0000" width="0.1900" height="4.0000" ry="0.0000" fill="currentColor"/>
<line transform="translate(14.2264, 20.7690)" stroke-linejoin="round" stroke-linecap="round" stroke-width="0.1000" stroke="currentColor" x1="0.0500" y1="-0.0000" x2="45.0146" y2="-0.0000"/>
<line transform="translate(14.2264, 19.7690)" stroke-linejoin="round" stroke-linecap="round" stroke-width="0.1000" stroke="currentColor" x1="0.0500" y1="-0.0000" x2="45.0146" y2="-0.0000"/>
<line transform="translate(14.2264, 18.7690)" stroke-linejoin="round" stroke-linecap="round" stroke-width="0.1000" stroke="currentColor" x1="0.0500" y1="-0.0000" x2="45.0146" y2="-0.0000"/>
<line transform="translate(14.2264, 17.7690)" stroke-linejoin="round" stroke-linecap="round" stroke-width="0.1000" stroke="currentColor" x1="0.0500" y1="-0.0000" x2="45.0146" y2="-0.0000"/>
<line transform="translate(14.2264, 16.7690)" stroke-linejoin="round" stroke-linecap="round" stroke-width="0.1000" stroke="currentColor" x1="0.0500" y1="-0.0000" x2="45.0146" y2="-0.0000"/>
<rect transform="translate(5.6906, 21.7690)" x="40.9624" y="-0.1000" width="1.9743" height="0.2000" ry="0.1000" fill="currentColor"/>
<line transform="translate(14.2264, 10.8756)" stroke-linejoin="round" stroke-linecap="round" stroke-width="0.1000" stroke="currentColor" x1="0.0500" y1="-0.0000" x2="45.0146" y2="-0.0000"/>
<line transform="translate(14.2264, 9.8756)" stroke-linejoin="round" stroke-linecap="round" stroke-width="0.1000" stroke="currentColor" x1="0.0500" y1="-0.0000" x2="45.0146" y2="-0.0000"/>
<line transform="translate(14.2264, 8.8756)" stroke-linejoin="round" stroke-linecap="round" stroke-width="0.1000" stroke="currentColor" x1="0.0500" y1="-0.0000" x2="45.0146" y2="-0.0000"/>
<line transform="translate(14.2264, 7.8756)" stroke-linejoin="round" stroke-linecap="round" stroke-width="0.1000" stroke="currentColor" x1="0.0500" y1="-0.0000" x2="45.0146" y2="-0.0000"/>
<line transform="translate(14.2264, 6.8756)" stroke-linejoin="round" stroke-linecap="round" stroke-width="0.1000" stroke="currentColor" x1="0.0500" y1="-0.0000" x2="45.0146" y2="-0.0000"/>
<a style="color:inherit;" xlink:href="textedit:///home/simdax/web/tonejsCli/lilypond/./includes.ly:3:18:33">
<text transform="translate(46.9820, 5.7914)" font-family="sans-serif" font-size="2.6163" text-anchor="start" fill="currentColor">
<tspan>
C</tspan>
</text>
<text transform="translate(48.8257, 5.7914)" font-family="sans-serif" font-size="2.6163" text-anchor="start" fill="currentColor">
<tspan/>
</text>
<text transform="translate(48.8257, 5.7914)" font-family="sans-serif" font-size="2.6163" text-anchor="start" fill="currentColor">
<tspan/>
</text>
<text transform="translate(48.8257, 4.2914)" font-family="sans-serif" font-size="1.8500" text-anchor="start" fill="currentColor">
<tspan/>
</text>
</a>
<a style="color:inherit;" xlink:href="textedit:///home/simdax/web/tonejsCli/lilypond/./includes.ly:2:32:47">
<path transform="translate(46.9820, 6.8756) scale(0.0040, -0.0040)" d="M220 138c56 0 109 -29 109 -91c0 -72 -56 -121 -103 -149c-36 -21 -76 -36 -117 -36c-56 0 -109 29 -109 91c0 72 56 121 103 149c36 21 76 36 117 36z" fill="currentColor"/>
</a>
<a style="color:inherit;" xlink:href="textedit:///home/simdax/web/tonejsCli/lilypond/./includes.ly:4:36:51">
<path transform="translate(46.9820, 21.7690) scale(0.0040, -0.0040)" d="M220 138c56 0 109 -29 109 -91c0 -72 -56 -121 -103 -149c-36 -21 -76 -36 -117 -36c-56 0 -109 29 -109 91c0 72 56 121 103 149c36 21 76 36 117 36z" fill="currentColor"/>
</a>
<a style="color:inherit;" xlink:href="textedit:///home/simdax/web/tonejsCli/lilypond/./includes.ly:4:36:51">
<path transform="translate(46.9820, 20.7690) scale(0.0040, -0.0040)" d="M220 138c56 0 109 -29 109 -91c0 -72 -56 -121 -103 -149c-36 -21 -76 -36 -117 -36c-56 0 -109 29 -109 91c0 72 56 121 103 149c36 21 76 36 117 36z" fill="currentColor"/>
</a>
<a style="color:inherit;" xlink:href="textedit:///home/simdax/web/tonejsCli/lilypond/./includes.ly:4:36:51">
<path transform="translate(46.9820, 19.7690) scale(0.0040, -0.0040)" d="M220 138c56 0 109 -29 109 -91c0 -72 -56 -121 -103 -149c-36 -21 -76 -36 -117 -36c-56 0 -109 29 -109 91c0 72 56 121 103 149c36 21 76 36 117 36z" fill="currentColor"/>
</a>
<a style="color:inherit;" xlink:href="textedit:///home/simdax/web/tonejsCli/lilypond/./includes.ly:3:18:33">
<path transform="translate(46.9820, 24.7690) scale(0.0040, -0.0040)" d="M220 138c56 0 109 -29 109 -91c0 -72 -56 -121 -103 -149c-36 -21 -76 -36 -117 -36c-56 0 -109 29 -109 91c0 72 56 121 103 149c36 21 76 36 117 36z" fill="currentColor"/>
</a>
<rect transform="translate(47.0470, 8.8756)" x="-0.0650" y="-1.8122" width="0.1300" height="3.3122" ry="0.0400" fill="currentColor"/>
<path transform="translate(47.1120, 10.3356) scale(0.0040, -0.0040)" d="M0 0h-16v250h16c98 58 227 148 227 259c0 57 -16 112 -41 163c-3 16 10 27 23 27c7 0 15 -3 20 -11c25 -56 40 -117 40 -179c0 -204 -269 -305 -269 -509z" fill="currentColor"/>
<rect transform="translate(48.2331, 18.7690)" x="-0.0650" y="-2.5000" width="0.1300" height="5.3122" ry="0.0400" fill="currentColor"/>
<rect transform="translate(37.9146, 18.7690)" x="-0.0650" y="-0.8122" width="0.1300" height="4.8122" ry="0.0400" fill="currentColor"/>
<rect transform="translate(37.9146, 27.7690)" x="-0.0650" y="-1.3122" width="0.1300" height="3.3122" ry="0.0400" fill="currentColor"/>
<rect transform="translate(44.5308, 8.8756)" x="-0.0650" y="-1.3122" width="0.1300" height="3.3200" ry="0.0400" fill="currentColor"/>
<a style="color:inherit;" xlink:href="textedit:///home/simdax/web/tonejsCli/lilypond/./includes.ly:2:24:39">
<path transform="translate(41.9496, 7.8756) scale(0.0040, -0.0040)" d="M220 138c56 0 109 -29 109 -91c0 -72 -56 -121 -103 -149c-36 -21 -76 -36 -117 -36c-56 0 -109 29 -109 91c0 72 56 121 103 149c36 21 76 36 117 36z" fill="currentColor"/>
</a>
<rect transform="translate(42.0146, 8.8756)" x="-0.0650" y="-0.8122" width="0.1300" height="3.1221" ry="0.0400" fill="currentColor"/>
<a style="color:inherit;" xlink:href="textedit:///home/simdax/web/tonejsCli/lilypond/./includes.ly:2:28:43">
<path transform="translate(44.4658, 7.3756) scale(0.0040, -0.0040)" d="M220 138c56 0 109 -29 109 -91c0 -72 -56 -121 -103 -149c-36 -21 -76 -36 -117 -36c-56 0 -109 29 -109 91c0 72 56 121 103 149c36 21 76 36 117 36z" fill="currentColor"/>
</a>
<polygon transform="translate(41.9496, 10.3833)" stroke-linejoin="round" stroke-linecap="round" stroke-width="0.0800" fill="currentColor" stroke="currentColor" points="2.6062 -0.5177 2.6062 -0.1177 0.0400 0.2000 0.0400 -0.2000"/>
<polygon transform="translate(37.8496, 11.6856)" stroke-linejoin="round" stroke-linecap="round" stroke-width="0.0800" fill="currentColor" stroke="currentColor" points="6.7062 -1.0100 6.7062 -0.6100 0.0400 0.2000 0.0400 -0.2000"/>
<polygon transform="translate(24.7625, 6.6856)" stroke-linejoin="round" stroke-linecap="round" stroke-width="0.0800" fill="currentColor" stroke="currentColor" points="9.6112 -0.8200 9.6112 -0.4200 0.0400 0.2000 0.0400 -0.2000"/>
<polygon transform="translate(29.6000, 7.1848)" stroke-linejoin="round" stroke-linecap="round" stroke-width="0.0800" fill="currentColor" stroke="currentColor" points="4.7738 -0.5092 4.7738 -0.1092 0.0400 0.2000 0.0400 -0.2000"/>
<a style="color:inherit;" xlink:href="textedit:///home/simdax/web/tonejsCli/lilypond/./includes.ly:3:21:36">
<path transform="translate(54.4231, 25.7690) scale(0.0040, -0.0040)" d="M220 138c56 0 109 -29 109 -91c0 -72 -56 -121 -103 -149c-36 -21 -76 -36 -117 -36c-56 0 -109 29 -109 91c0 72 56 121 103 149c36 21 76 36 117 36z" fill="currentColor"/>
</a>
<rect transform="translate(47.0470, 27.7690)" x="-0.0650" y="-2.8122" width="0.1300" height="3.3122" ry="0.0400" fill="currentColor"/>
<a style="color:inherit;" xlink:href="textedit:///home/simdax/web/tonejsCli/lilypond/./includes.ly:3:21:36">
<text transform="translate(54.4231, 5.7914)" font-family="sans-serif" font-size="2.6163" text-anchor="start" fill="currentColor">
<tspan>
A</tspan>
</text>
<text transform="translate(56.2327, 5.7914)" font-family="sans-serif" font-size="2.6163" text-anchor="start" fill="currentColor">
<tspan/>
</text>
<text transform="translate(56.2327, 5.7914)" font-family="sans-serif" font-size="2.6163" text-anchor="start" fill="currentColor">
<tspan/>
</text>
<text transform="translate(56.2327, 4.2914)" font-family="sans-serif" font-size="1.8500" text-anchor="start" fill="currentColor">
<tspan/>
</text>
</a>
<a style="color:inherit;" xlink:href="textedit:///home/simdax/web/tonejsCli/lilypond/./includes.ly:4:39:54">
<path transform="translate(54.4231, 19.2690) scale(0.0040, -0.0040)" d="M220 138c56 0 109 -29 109 -91c0 -72 -56 -121 -103 -149c-36 -21 -76 -36 -117 -36c-56 0 -109 29 -109 91c0 72 56 121 103 149c36 21 76 36 117 36z" fill="currentColor"/>
</a>
<a style="color:inherit;" xlink:href="textedit:///home/simdax/web/tonejsCli/lilypond/./includes.ly:4:39:54">
<path transform="translate(54.4231, 18.2690) scale(0.0040, -0.0040)" d="M220 138c56 0 109 -29 109 -91c0 -72 -56 -121 -103 -149c-36 -21 -76 -36 -117 -36c-56 0 -109 29 -109 91c0 72 56 121 103 149c36 21 76 36 117 36z" fill="currentColor"/>
</a>
<a style="color:inherit;" xlink:href="textedit:///home/simdax/web/tonejsCli/lilypond/./includes.ly:4:39:54">
<path transform="translate(54.4231, 17.2690) scale(0.0040, -0.0040)" d="M220 138c56 0 109 -29 109 -91c0 -72 -56 -121 -103 -149c-36 -21 -76 -36 -117 -36c-56 0 -109 29 -109 91c0 72 56 121 103 149c36 21 76 36 117 36z" fill="currentColor"/>
</a>
<rect transform="translate(54.4881, 18.7690)" x="-0.0650" y="-1.3122" width="0.1300" height="4.9789" ry="0.0400" fill="currentColor"/>
<path transform="translate(52.9731, 18.2690) scale(0.0040, -0.0040)" d="M216 -312c0 -10 -8 -19 -18 -19s-19 9 -19 19v145l-83 -31v-158c0 -10 -9 -19 -19 -19s-18 9 -18 19v145l-32 -12c-2 -1 -5 -1 -7 -1c-11 0 -20 9 -20 20v60c0 8 5 16 13 19l46 16v160l-32 -11c-2 -1 -5 -1 -7 -1c-11 0 -20 9 -20 20v60c0 8 5 15 13 18l46 17v158
c0 10 8 19 18 19s19 -9 19 -19v-145l83 31v158c0 10 9 19 19 19s18 -9 18 -19v-145l32 12c2 1 5 1 7 1c11 0 20 -9 20 -20v-60c0 -8 -5 -16 -13 -19l-46 -16v-160l32 11c2 1 5 1 7 1c11 0 20 -9 20 -20v-60c0 -8 -5 -15 -13 -18l-46 -17v-158zM96 65v-160l83 30v160z" fill="currentColor"/>
<rect transform="translate(54.4881, 27.7690)" x="-0.0650" y="-1.8122" width="0.1300" height="3.3122" ry="0.0400" fill="currentColor"/>
<a style="color:inherit;" xlink:href="textedit:///home/simdax/web/tonejsCli/lilypond/template.ly:17:2:3">
</a>
<path transform="translate(19.2264, 18.7690) scale(0.0040, -0.0040)" d="M359 27c-49 0 -75 42 -75 75c0 38 27 77 72 77c4 0 9 0 14 -1c-28 37 -72 59 -120 59c-106 0 -113 -73 -113 -186v-51v-51c0 -113 7 -187 113 -187c80 0 139 70 158 151c2 7 7 10 12 10c6 0 13 -4 13 -12c0 -94 -105 -174 -183 -174c-68 0 -137 21 -184 70
c-49 51 -66 122 -66 193s17 142 66 193c47 49 116 69 184 69c87 0 160 -64 175 -150c1 -5 1 -9 1 -13c0 -40 -30 -72 -67 -72z" fill="currentColor"/>
<a style="color:inherit;" xlink:href="textedit:///home/simdax/web/tonejsCli/lilypond/./includes.ly:3:12:27">
<path transform="translate(23.5764, 27.7690) scale(0.0040, -0.0040)" d="M220 138c56 0 109 -29 109 -91c0 -72 -56 -121 -103 -149c-36 -21 -76 -36 -117 -36c-56 0 -109 29 -109 91c0 72 56 121 103 149c36 21 76 36 117 36z" fill="currentColor"/>
</a>
<path transform="translate(15.0264, 26.7690) scale(0.0040, -0.0040)" d="M557 -125c0 28 23 51 51 51s51 -23 51 -51s-23 -51 -51 -51s-51 23 -51 51zM557 125c0 28 23 51 51 51s51 -23 51 -51s-23 -51 -51 -51s-51 23 -51 51zM232 263c172 0 293 -88 293 -251c0 -263 -263 -414 -516 -521c-3 -3 -6 -4 -9 -4c-7 0 -13 6 -13 13c0 3 1 6 4 9
c202 118 412 265 412 493c0 120 -63 235 -171 235c-74 0 -129 -54 -154 -126c11 5 22 8 34 8c55 0 100 -45 100 -100c0 -58 -44 -106 -100 -106c-60 0 -112 47 -112 106c0 133 102 244 232 244z" fill="currentColor"/>
<a style="color:inherit;" xlink:href="textedit:///home/simdax/web/tonejsCli/lilypond/template.ly:25:2:3">
</a>
<path transform="translate(19.2264, 27.7690) scale(0.0040, -0.0040)" d="M359 27c-49 0 -75 42 -75 75c0 38 27 77 72 77c4 0 9 0 14 -1c-28 37 -72 59 -120 59c-106 0 -113 -73 -113 -186v-51v-51c0 -113 7 -187 113 -187c80 0 139 70 158 151c2 7 7 10 12 10c6 0 13 -4 13 -12c0 -94 -105 -174 -183 -174c-68 0 -137 21 -184 70
c-49 51 -66 122 -66 193s17 142 66 193c47 49 116 69 184 69c87 0 160 -64 175 -150c1 -5 1 -9 1 -13c0 -40 -30 -72 -67 -72z" fill="currentColor"/>
<rect transform="translate(24.8275, 8.8756)" x="-0.0650" y="-2.1942" width="0.1300" height="3.0064" ry="0.0400" fill="currentColor"/>
<path transform="translate(15.0264, 19.7690) scale(0.0040, -0.0040)" d="M376 262c4 0 9 1 13 1c155 0 256 -128 256 -261c0 -76 -33 -154 -107 -210c-22 -17 -47 -28 -73 -36c3 -35 5 -70 5 -105c0 -19 -1 -39 -2 -58c-7 -120 -90 -228 -208 -228c-108 0 -195 88 -195 197c0 58 53 103 112 103c54 0 95 -47 95 -103c0 -52 -43 -95 -95 -95
c-11 0 -21 2 -31 6c26 -39 68 -65 117 -65c96 0 157 92 163 191c1 18 2 37 2 55c0 31 -1 61 -4 92c-29 -5 -58 -8 -89 -8c-188 0 -333 172 -333 374c0 177 131 306 248 441c-19 62 -37 125 -45 190c-6 52 -7 104 -7 156c0 115 55 224 149 292c3 2 7 3 10 3c4 0 7 0 10 -3
c71 -84 133 -245 133 -358c0 -143 -86 -255 -180 -364c21 -68 39 -138 56 -207zM461 -203c68 24 113 95 113 164c0 90 -66 179 -173 190c24 -116 46 -231 60 -354zM74 28c0 -135 129 -247 264 -247c28 0 55 2 82 6c-14 127 -37 245 -63 364c-79 -8 -124 -61 -124 -119
c0 -44 25 -91 81 -123c5 -5 7 -10 7 -15c0 -11 -10 -22 -22 -22c-3 0 -6 1 -9 2c-80 43 -117 115 -117 185c0 88 58 174 160 197c-14 58 -29 117 -46 175c-107 -121 -213 -243 -213 -403zM408 1045c-99 -48 -162 -149 -162 -259c0 -74 18 -133 36 -194
c80 97 146 198 146 324c0 55 -4 79 -20 129z" fill="currentColor"/>
<rect transform="translate(24.8275, 18.7690)" x="-0.0650" y="-3.0000" width="0.1300" height="5.3122" ry="0.0400" fill="currentColor"/>
<path transform="translate(13.8664, 23.2690) scale(0.0040, -0.0040)" d="M-15 -498c0 -261 -102 -516 -102 -765c0 -135 30 -261 129 -360c3 -3 3 -9 3 -12c0 -9 -6 -18 -15 -18c-3 0 -9 3 -12 6c-132 135 -177 312 -177 501c0 267 108 528 108 780c0 135 -33 261 -129 360c-3 3 -3 3 -3 6s0 3 3 6c96 99 129 225 129 360
c0 252 -108 513 -108 780c0 189 45 366 177 501c3 3 9 6 12 6c9 0 15 -9 15 -18c0 -3 0 -9 -3 -12c-99 -99 -129 -225 -129 -360c0 -249 102 -504 102 -765c0 -186 -45 -363 -174 -498c129 -135 174 -312 174 -498z" fill="currentColor"/>
<rect transform="translate(14.1664, 18.3223)" x="0.0000" y="-11.4967" width="0.1600" height="22.9934" ry="0.0500" fill="currentColor"/>
<path transform="translate(22.1264, 20.2690) scale(0.0040, -0.0040)" d="M216 -312c0 -10 -8 -19 -18 -19s-19 9 -19 19v145l-83 -31v-158c0 -10 -9 -19 -19 -19s-18 9 -18 19v145l-32 -12c-2 -1 -5 -1 -7 -1c-11 0 -20 9 -20 20v60c0 8 5 16 13 19l46 16v160l-32 -11c-2 -1 -5 -1 -7 -1c-11 0 -20 9 -20 20v60c0 8 5 15 13 18l46 17v158
c0 10 8 19 18 19s19 -9 19 -19v-145l83 31v158c0 10 9 19 19 19s18 -9 18 -19v-145l32 12c2 1 5 1 7 1c11 0 20 -9 20 -20v-60c0 -8 -5 -16 -13 -19l-46 -16v-160l32 11c2 1 5 1 7 1c11 0 20 -9 20 -20v-60c0 -8 -5 -15 -13 -18l-46 -17v-158zM96 65v-160l83 30v160z" fill="currentColor"/>
<a style="color:inherit;" xlink:href="textedit:///home/simdax/web/tonejsCli/lilypond/./includes.ly:3:12:27">
<text transform="translate(23.5764, 5.7914)" font-family="sans-serif" font-size="2.6163" text-anchor="start" fill="currentColor">
<tspan>
D</tspan>
</text>
<text transform="translate(25.5908, 5.7914)" font-family="sans-serif" font-size="2.6163" text-anchor="start" fill="currentColor">
<tspan/>
</text>
<text transform="translate(25.5908, 5.7914)" font-family="sans-serif" font-size="2.6163" text-anchor="start" fill="currentColor">
<tspan/>
</text>
<text transform="translate(25.5908, 4.2914)" font-family="sans-serif" font-size="1.8500" text-anchor="start" fill="currentColor">
<tspan/>
</text>
</a>
<a style="color:inherit;" xlink:href="textedit:///home/simdax/web/tonejsCli/lilypond/./includes.ly:2:10:25">
<path transform="translate(23.5764, 9.8756) scale(0.0040, -0.0040)" d="M220 138c56 0 109 -29 109 -91c0 -72 -56 -121 -103 -149c-36 -21 -76 -36 -117 -36c-56 0 -109 29 -109 91c0 72 56 121 103 149c36 21 76 36 117 36z" fill="currentColor"/>
</a>
<path transform="translate(15.0264, 9.8756) scale(0.0040, -0.0040)" d="M376 262c4 0 9 1 13 1c155 0 256 -128 256 -261c0 -76 -33 -154 -107 -210c-22 -17 -47 -28 -73 -36c3 -35 5 -70 5 -105c0 -19 -1 -39 -2 -58c-7 -120 -90 -228 -208 -228c-108 0 -195 88 -195 197c0 58 53 103 112 103c54 0 95 -47 95 -103c0 -52 -43 -95 -95 -95
c-11 0 -21 2 -31 6c26 -39 68 -65 117 -65c96 0 157 92 163 191c1 18 2 37 2 55c0 31 -1 61 -4 92c-29 -5 -58 -8 -89 -8c-188 0 -333 172 -333 374c0 177 131 306 248 441c-19 62 -37 125 -45 190c-6 52 -7 104 -7 156c0 115 55 224 149 292c3 2 7 3 10 3c4 0 7 0 10 -3
c71 -84 133 -245 133 -358c0 -143 -86 -255 -180 -364c21 -68 39 -138 56 -207zM461 -203c68 24 113 95 113 164c0 90 -66 179 -173 190c24 -116 46 -231 60 -354zM74 28c0 -135 129 -247 264 -247c28 0 55 2 82 6c-14 127 -37 245 -63 364c-79 -8 -124 -61 -124 -119
c0 -44 25 -91 81 -123c5 -5 7 -10 7 -15c0 -11 -10 -22 -22 -22c-3 0 -6 1 -9 2c-80 43 -117 115 -117 185c0 88 58 174 160 197c-14 58 -29 117 -46 175c-107 -121 -213 -243 -213 -403zM408 1045c-99 -48 -162 -149 -162 -259c0 -74 18 -133 36 -194
c80 97 146 198 146 324c0 55 -4 79 -20 129z" fill="currentColor"/>
<a style="color:inherit;" xlink:href="textedit:///home/simdax/web/tonejsCli/lilypond/template.ly:5:2:3">
</a>
<path transform="translate(19.2264, 8.8756) scale(0.0040, -0.0040)" d="M359 27c-49 0 -75 42 -75 75c0 38 27 77 72 77c4 0 9 0 14 -1c-28 37 -72 59 -120 59c-106 0 -113 -73 -113 -186v-51v-51c0 -113 7 -187 113 -187c80 0 139 70 158 151c2 7 7 10 12 10c6 0 13 -4 13 -12c0 -94 -105 -174 -183 -174c-68 0 -137 21 -184 70
c-49 51 -66 122 -66 193s17 142 66 193c47 49 116 69 184 69c87 0 160 -64 175 -150c1 -5 1 -9 1 -13c0 -40 -30 -72 -67 -72z" fill="currentColor"/>
<a style="color:inherit;" xlink:href="textedit:///home/simdax/web/tonejsCli/lilypond/template.ly:12:2:3">
<text transform="translate(21.9639, 14.2349)" font-family="Century Schoolbook L" font-size="2.4696" text-anchor="start" fill="currentColor">
<tspan>
Aaa</tspan>
</text>
</a>
<a style="color:inherit;" xlink:href="textedit:///home/simdax/web/tonejsCli/lilypond/./includes.ly:4:30:45">
<path transform="translate(23.5764, 21.2690) scale(0.0040, -0.0040)" d="M220 138c56 0 109 -29 109 -91c0 -72 -56 -121 -103 -149c-36 -21 -76 -36 -117 -36c-56 0 -109 29 -109 91c0 72 56 121 103 149c36 21 76 36 117 36z" fill="currentColor"/>
</a>
<a style="color:inherit;" xlink:href="textedit:///home/simdax/web/tonejsCli/lilypond/./includes.ly:4:30:45">
<path transform="translate(23.5764, 20.2690) scale(0.0040, -0.0040)" d="M220 138c56 0 109 -29 109 -91c0 -72 -56 -121 -103 -149c-36 -21 -76 -36 -117 -36c-56 0 -109 29 -109 91c0 72 56 121 103 149c36 21 76 36 117 36z" fill="currentColor"/>
</a>
<a style="color:inherit;" xlink:href="textedit:///home/simdax/web/tonejsCli/lilypond/./includes.ly:4:30:45">
<path transform="translate(23.5764, 19.2690) scale(0.0040, -0.0040)" d="M220 138c56 0 109 -29 109 -91c0 -72 -56 -121 -103 -149c-36 -21 -76 -36 -117 -36c-56 0 -109 29 -109 91c0 72 56 121 103 149c36 21 76 36 117 36z" fill="currentColor"/>
</a>
<a style="color:inherit;" xlink:href="textedit:///home/simdax/web/tonejsCli/lilypond/./includes.ly:2:17:32">
<path transform="translate(33.0976, 8.8756) scale(0.0040, -0.0040)" d="M220 138c56 0 109 -29 109 -91c0 -72 -56 -121 -103 -149c-36 -21 -76 -36 -117 -36c-56 0 -109 29 -109 91c0 72 56 121 103 149c36 21 76 36 117 36z" fill="currentColor"/>
</a>
<a style="color:inherit;" xlink:href="textedit:///home/simdax/web/tonejsCli/lilypond/template.ly:12:10:11">
<text transform="translate(31.6388, 14.2349)" font-family="Century Schoolbook L" font-size="2.4696" text-anchor="start" fill="currentColor">
<tspan>
Cee</tspan>
</text>
</a>
<rect transform="translate(34.3487, 8.8756)" x="-0.0650" y="-2.8058" width="0.1300" height="2.6180" ry="0.0400" fill="currentColor"/>
<a style="color:inherit;" xlink:href="textedit:///home/simdax/web/tonejsCli/lilypond/./includes.ly:3:15:30">
<text transform="translate(37.8496, 5.7914)" font-family="sans-serif" font-size="2.6163" text-anchor="start" fill="currentColor">
<tspan>
G</tspan>
</text>
<text transform="translate(39.8982, 5.7914)" font-family="sans-serif" font-size="2.6163" text-anchor="start" fill="currentColor">
<tspan/>
</text>
<text transform="translate(39.8982, 5.7914)" font-family="sans-serif" font-size="2.6163" text-anchor="start" fill="currentColor">
<tspan/>
</text>
<text transform="translate(39.8982, 4.2914)" font-family="sans-serif" font-size="1.8500" text-anchor="start" fill="currentColor">
<tspan/>
</text>
</a>
<a style="color:inherit;" xlink:href="textedit:///home/simdax/web/tonejsCli/lilypond/./includes.ly:2:21:36">
<path transform="translate(37.8496, 8.3756) scale(0.0040, -0.0040)" d="M220 138c56 0 109 -29 109 -91c0 -72 -56 -121 -103 -149c-36 -21 -76 -36 -117 -36c-56 0 -109 29 -109 91c0 72 56 121 103 149c36 21 76 36 117 36z" fill="currentColor"/>
</a>
<a style="color:inherit;" xlink:href="textedit:///home/simdax/web/tonejsCli/lilypond/template.ly:12:14:15">
<text transform="translate(36.3225, 14.2349)" font-family="Century Schoolbook L" font-size="2.4696" text-anchor="start" fill="currentColor">
<tspan>
Dee</tspan>
</text>
</a>
<a style="color:inherit;" xlink:href="textedit:///home/simdax/web/tonejsCli/lilypond/./includes.ly:4:33:48">
<path transform="translate(37.8496, 19.7690) scale(0.0040, -0.0040)" d="M220 138c56 0 109 -29 109 -91c0 -72 -56 -121 -103 -149c-36 -21 -76 -36 -117 -36c-56 0 -109 29 -109 91c0 72 56 121 103 149c36 21 76 36 117 36z" fill="currentColor"/>
</a>
<a style="color:inherit;" xlink:href="textedit:///home/simdax/web/tonejsCli/lilypond/./includes.ly:4:33:48">
<path transform="translate(37.8496, 18.7690) scale(0.0040, -0.0040)" d="M220 138c56 0 109 -29 109 -91c0 -72 -56 -121 -103 -149c-36 -21 -76 -36 -117 -36c-56 0 -109 29 -109 91c0 72 56 121 103 149c36 21 76 36 117 36z" fill="currentColor"/>
</a>
<a style="color:inherit;" xlink:href="textedit:///home/simdax/web/tonejsCli/lilypond/./includes.ly:4:33:48">
<path transform="translate(37.8496, 17.7690) scale(0.0040, -0.0040)" d="M220 138c56 0 109 -29 109 -91c0 -72 -56 -121 -103 -149c-36 -21 -76 -36 -117 -36c-56 0 -109 29 -109 91c0 72 56 121 103 149c36 21 76 36 117 36z" fill="currentColor"/>
</a>
<a style="color:inherit;" xlink:href="textedit:///home/simdax/web/tonejsCli/lilypond/./includes.ly:3:15:30">
<path transform="translate(37.8496, 26.2690) scale(0.0040, -0.0040)" d="M220 138c56 0 109 -29 109 -91c0 -72 -56 -121 -103 -149c-36 -21 -76 -36 -117 -36c-56 0 -109 29 -109 91c0 72 56 121 103 149c36 21 76 36 117 36z" fill="currentColor"/>
</a>
<rect transform="translate(37.9146, 8.8756)" x="-0.0650" y="-0.3122" width="0.1300" height="3.1144" ry="0.0400" fill="currentColor"/>
<rect transform="translate(23.6414, 27.7690)" x="-0.0650" y="0.1878" width="0.1300" height="3.1455" ry="0.0400" fill="currentColor"/>
<a style="color:inherit;" xlink:href="textedit:///home/simdax/web/tonejsCli/lilypond/./includes.ly:2:13:28">
<path transform="translate(28.4138, 9.3756) scale(0.0040, -0.0040)" d="M220 138c56 0 109 -29 109 -91c0 -72 -56 -121 -103 -149c-36 -21 -76 -36 -117 -36c-56 0 -109 29 -109 91c0 72 56 121 103 149c36 21 76 36 117 36z" fill="currentColor"/>
</a>
<a style="color:inherit;" xlink:href="textedit:///home/simdax/web/tonejsCli/lilypond/template.ly:12:6:7">
<text transform="translate(26.9550, 14.2349)" font-family="Century Schoolbook L" font-size="2.4696" text-anchor="start" fill="currentColor">
<tspan>
Bee</tspan>
</text>
</a>
<rect transform="translate(29.6650, 8.8756)" x="-0.0650" y="-2.5049" width="0.1300" height="2.8171" ry="0.0400" fill="currentColor"/>
<a transform="translate(31.6850, 165.1512)" xlink:href="http://lilypond.org/">
<rect x="0.0000" y="-0.4439" width="56.1316" height="2.0486" fill="none" stroke="none" stroke-width="0.0"/>
</a>
<text transform="translate(31.6850, 165.1512)" font-family="Century Schoolbook L" font-size="2.2001" text-anchor="start" fill="currentColor">
<tspan>
Music engraving by LilyPond 2.18.2—www.lilypond.org</tspan>
</text>
</svg>
